Coordinates
version=1
nRows=26
nColumns=22
inDegrees=yes

Units are S.I. units (second, meters, Newtons, ...)
If the header above contains a line with 'inDegrees', this indicates whether rotational values are in degrees (yes) or radians (no).

endheader
time	pelvis_tilt	pelvis_list	pelvis_rotation	pelvis_tx	pelvis_ty	pelvis_tz	hip_flexion_r	hip_adduction_r	hip_rotation_r	knee_angle_r	ankle_angle_r	subtalar_angle_r	hip_flexion_l	hip_adduction_l	hip_rotation_l	knee_angle_l	ankle_angle_l	subtalar_angle_l	lumbar_extension	lumbar_bending	lumbar_rotation
      0.01000000	      5.78479779	     -2.63156953	      8.38521919	     -1.39913350	      0.95641643	      0.03953765	     -7.49754495	      5.13860633	    -10.08457512	     -5.78600551	      8.11263522	      1.40900953	     -2.17256104	     -5.15229017	    -10.53913427	    -16.30128128	     20.27904564	     -5.45096798	    -10.32276430	      3.86318963	     -9.05416927
      0.02000000	      5.78957317	     -2.63202517	      8.38662910	     -1.39913290	      0.95642816	      0.03950919	     -7.50060970	      5.13863307	    -10.08710251	     -5.79004879	      8.10793202	      1.40907247	     -2.17779765	     -5.15161929	    -10.54015018	    -16.30212839	     20.27890618	     -5.45173230	    -10.31789315	      3.86196489	     -9.05163470
      0.03000000	      5.79178913	     -2.63330934	      8.38665383	     -1.39916246	      0.95643485	      0.03947838	     -7.49991498	      5.13861860	    -10.08735632	     -5.78983240	      8.10769468	      1.40907751	     -2.17793092	     -5.15091649	    -10.54031247	    -16.30205114	     20.27889761	     -5.45178185	    -10.31716648	      3.86127897	     -9.05140368
      0.04000000	      5.80951777	     -2.62789820	      8.38317600	     -1.39916071	      0.95646599	      0.03944952	     -7.51032513	      5.13176629	    -10.13109334	     -5.80656553	      8.08597929	      1.41039044	     -2.20579177	     -5.14423476	    -10.54788853	    -16.28918725	     20.27730577	     -5.46069041	    -10.32679626	      3.84921495	     -9.01126769
      0.05000000	      5.81254759	     -2.62940927	      8.38358691	     -1.39919805	      0.95647020	      0.03940856	     -7.50988613	      5.13166398	    -10.13091288	     -5.80671372	      8.08610491	      1.41042479	     -2.20607649	     -5.14288664	    -10.54800520	    -16.28933944	     20.27723986	     -5.46081275	    -10.32538081	      3.84852292	     -9.01118912
      0.06000000	      5.81915121	     -2.62858130	      8.38969488	     -1.39921074	      0.95647511	      0.03934905	     -7.51429515	      5.12950807	    -10.12921941	     -5.81255384	      8.08780008	      1.41063693	     -2.21030005	     -5.13974822	    -10.54728645	    -16.29237034	     20.27659976	     -5.46205689	    -10.31777817	      3.84683713	     -9.00718333
      0.07000000	      5.83132325	     -2.61590155	      8.38733910	     -1.39927219	      0.95649264	      0.03931142	     -7.51988971	      5.11393371	    -10.12892869	     -5.82333913	      8.11216133	      1.41205509	     -2.21771302	     -5.12252761	    -10.53277304	    -16.30008522	     20.27016097	     -5.47652634	    -10.33420022	      3.82672682	     -8.97667097
      0.08000000	      5.83435172	     -2.61776089	      8.38739815	     -1.39931673	      0.95649187	      0.03926920	     -7.51948799	      5.11338710	    -10.12878391	     -5.82329525	      8.11237331	      1.41204243	     -2.21714686	     -5.12158295	    -10.53288736	    -16.29974763	     20.27006307	     -5.47671477	    -10.33304789	      3.82604778	     -8.97655527
      0.09000000	      5.83731099	     -2.61939073	      8.38754618	     -1.39936033	      0.95649083	      0.03922693	     -7.51912554	      5.11281996	    -10.12850674	     -5.82340570	      8.11264167	      1.41201053	     -2.21652268	     -5.12053299	    -10.53282995	    -16.29972435	     20.26989346	     -5.47695358	    -10.33194809	      3.82556767	     -8.97616567
      0.10000000	      5.83951060	     -2.61639040	      8.38438431	     -1.39943177	      0.95648822	      0.03918729	     -7.50538353	      5.10471218	    -10.10638546	     -5.84945740	      8.15753683	      1.40349319	     -2.20741108	     -5.11338781	    -10.51805043	    -16.31506552	     20.24724589	     -5.52502523	    -10.33582481	      3.81962561	     -8.94707999
      0.11000000	      5.84039085	     -2.61776870	      8.37801734	     -1.39949284	      0.95648573	      0.03913994	     -7.50211422	      5.10121232	    -10.10679702	     -5.84715158	      8.15820907	      1.40274239	     -2.20333582	     -5.11061166	    -10.51538366	    -16.31835571	     20.24753315	     -5.52669878	    -10.34079869	      3.82566796	     -8.94702868
      0.12000000	      5.84559334	     -2.62793684	      8.38100379	     -1.39959190	      0.95647760	      0.03910518	     -7.49075879	      5.10979272	    -10.09499202	     -5.86498499	      8.16500906	      1.39585757	     -2.18139087	     -5.12328863	    -10.49254686	    -16.35777119	     20.25064977	     -5.53716532	    -10.35640377	      3.83910163	     -8.93837784
      0.13000000	      5.82409977	     -2.66948756	      8.39384719	     -1.39968330	      0.95640483	      0.03906519	     -7.44888427	      5.15084804	    -10.10514929	     -5.87524521	      8.18615712	      1.36457046	     -2.10805773	     -5.17449309	    -10.48872773	    -16.43101598	     20.30976171	     -5.54762244	    -10.33333388	      3.89038237	     -8.95318979
      0.14000000	      5.80977025	     -2.70366965	      8.40089606	     -1.39978710	      0.95634148	      0.03904049	     -7.40493037	      5.18324818	    -10.11178854	     -5.90614275	      8.20315976	      1.33357135	     -2.04102363	     -5.21941290	    -10.46938107	    -16.51117733	     20.37421760	     -5.51328013	    -10.32646764	      3.93333167	     -8.95623601
      0.15000000	      5.82147574	     -2.71544867	      8.39921775	     -1.39989791	      0.95632374	      0.03901405	     -7.38776504	      5.19288335	    -10.09549322	     -5.94637704	      8.21357762	      1.32409389	     -2.01053788	     -5.23992485	    -10.42908948	    -16.58500825	     20.41044265	     -5.48882766	    -10.36072679	      3.95660312	     -8.94810925
      0.16000000	      5.76319600	     -2.79709643	      8.42308310	     -1.40002247	      0.95612516	      0.03901015	     -7.26703930	      5.27273169	    -10.13821364	     -6.01507591	      8.26583162	      1.24418459	     -1.81692491	     -5.35658528	    -10.44214603	    -16.80417295	     20.60785485	     -5.28434494	    -10.29859489	      4.05213850	     -8.98541163
      0.17000000	      5.72435269	     -2.87411938	      8.43083960	     -1.40015779	      0.95595856	      0.03901706	     -7.14631967	      5.34490068	    -10.16000040	     -6.12607351	      8.34078756	      1.15889018	     -1.65525608	     -5.46274832	    -10.39677285	    -17.00731906	     20.76977119	     -5.03963743	    -10.27078623	      4.14899003	     -8.98310394
      0.18000000	      5.75015398	     -2.93850184	      8.43591124	     -1.40026076	      0.95587505	      0.03901509	     -7.09143742	      5.41182068	    -10.18327356	     -6.25381897	      8.45003080	      1.12392410	     -1.56756598	     -5.56258308	    -10.32369676	    -17.21574623	     21.03348106	     -4.88765538	    -10.32388037	      4.24766877	     -8.98295178
      0.19000000	      5.65865351	     -3.03401032	      8.45185625	     -1.40043667	      0.95557913	      0.03904801	     -6.84767820	      5.49229720	    -10.22313600	     -6.48267491	      8.55329760	      0.98214261	     -1.25747367	     -5.70281697	    -10.27526485	    -17.58747102	     21.27836102	     -4.46098156	    -10.24274118	      4.36295865	     -9.00649446
      0.20000000	      5.62804173	     -3.11845537	      8.45641949	     -1.40057297	      0.95536811	      0.03908982	     -6.65085769	      5.56651029	    -10.26166450	     -6.75641978	      8.70398187	      0.85189418	     -1.02533131	     -5.83430889	    -10.19609126	    -17.94969926	     21.59024482	     -4.09197512	    -10.24042998	      4.47987491	     -9.01671408
      0.21000000	      5.59890847	     -3.19938488	      8.45383472	     -1.40069659	      0.95514949	      0.03914783	     -6.42018866	      5.63346405	    -10.29488704	     -7.09969313	      8.88291198	      0.70697149	     -0.78001415	     -5.96229219	    -10.10378902	    -18.34593100	     21.93346680	     -3.73325781	    -10.24536911	      4.59671354	     -9.01809319
      0.22000000	      5.57437511	     -3.27331199	      8.43650509	     -1.40080153	      0.95493087	      0.03924882	     -6.15733466	      5.69054409	    -10.31703347	     -7.51562511	      9.09236534	      0.53694322	     -0.53551093	     -6.08234189	    -10.00462353	    -18.75971235	     22.29783148	     -3.40089135	    -10.26373934	      4.70474602	     -9.01028433
      0.23000000	      5.55165853	     -3.33487149	      8.40278463	     -1.40087742	      0.95471391	      0.03936492	     -5.86063652	      5.72981983	    -10.31672919	     -8.00467573	      9.32105768	      0.33184501	     -0.30519863	     -6.18096276	     -9.89458375	    -19.16276028	     22.66130044	     -3.11895961	    -10.29054028	      4.80443852	     -8.98140495
      0.24000000	      5.53899067	     -3.37601099	      8.34673253	     -1.40091910	      0.95451316	      0.03953313	     -5.54288280	      5.74652194	    -10.29082590	     -8.56086747	      9.57545260	      0.10646445	     -0.10817839	     -6.25208563	     -9.78423307	    -19.54195497	     23.02053901	     -2.92265160	    -10.34041689	      4.87878268	     -8.93562661
      0.25000000	      5.52973412	     -3.39419106	      8.26517755	     -1.40091354	      0.95431963	      0.03975538	     -5.19915089	      5.73774868	    -10.23426083	     -9.18267336	      9.84116033	     -0.14562662	      0.04831361	     -6.28801112	     -9.67284043	    -19.87181037	     23.35839345	     -2.81147710	    -10.40298034	      4.92367399	     -8.87434213
      0.26000000	      5.52372812	     -3.38269553	      8.15890722	     -1.40085041	      0.95412823	      0.03999594	     -4.83418402	      5.69343108	    -10.14633732	     -9.86584916	     10.12182541	     -0.42253252	      0.15777985	     -6.28013266	     -9.57780022	    -20.14336238	     23.67367729	     -2.78301321	    -10.47764926	      4.94052085	     -8.80512042
